<svg xmlns="http://www.w3.org/2000/svg" viewBox="0 0 168 168">
  <title>lime</title>
  <path d="M75,1H95c-.11,1.63,1,1.75,2.23,2,20.53,3.3,37.54,12.7,51.06,28.67,16.92,20,23,42.92,18.62,68.43-5.66,33.35-33.94,61.22-66.81,67.17-4,.73-8.29-.2-12.1,1.78H82c-3.81-2-8-1-12.09-1.79-35.8-7.27-63-35.44-67.66-72C-1.09,69,7.29,45.68,25.83,26.73A81.18,81.18,0,0,1,72.21,2.94C73.49,2.74,75,3.05,75,1ZM85.35,12c-41-1.68-74.44,32-74.13,73.9a73.25,73.25,0,0,0,73.59,73c41.42.13,74.1-32.45,74-73.84C158.68,44.06,125.94,10.68,85.35,12Z"/>
  <path d="M123.15,89c6.32,0,12.65-.07,19,0,3.74.06,6,.83,5.13,5.88a62.13,62.13,0,0,1-11.93,27.87c-2.52,3.32-4.27,2.29-6.3.27-8.34-8.28-16.41-16.82-25-24.84-1.84-1.71-5.5-3.85-4.36-7,1.29-3.54,5.18-2.07,8-2.15C112.82,88.88,118,89,123.15,89Z"/>
  <path d="M46.37,89c6.15,0,12.3,0,18.45,0,2.27,0,4.62.32,5.68,2.34s-1.41,3.09-2.56,4.27c-5.64,5.83-11.68,11.3-17.07,17.35-3,3.34-6.66,5.87-9.43,9.34-2.41,3-4.09,4-7.07,0A65.5,65.5,0,0,1,22.7,94.39c-.88-4.82,1.75-5.19,4.72-5.31C33.73,88.83,40.05,89,46.37,89Z"/>
  <path d="M89,124V105.54c0-2.17-.08-4.42,2.21-5.63,2.64-1.4,3.47,1.26,4.7,2.47,8.89,8.73,17.61,17.63,26.49,26.36,2.79,2.74,3.48,4.29-.4,7.18-8.58,6.39-18.11,10-28.44,11.82-3.66.65-4.56-1.78-4.56-4.83Z"/>
  <path d="M81,47.86q0,9.48,0,19c0,1.51.13,3.15-1.5,3.92s-2.78-.42-3.86-1.5C66.07,59.64,56.5,50,46.86,40.48c-2.1-2.07-2.36-3.34.29-5.4a63.08,63.08,0,0,1,26.34-12c6-1.26,7.48.18,7.51,6.29S81,41.71,81,47.86Z"/>
  <path d="M46.26,81.05c-6.15,0-12.3,0-18.44,0-5.19,0-5.93-1.23-5-6.24A65.76,65.76,0,0,1,33.22,49.41c3.58-5.21,4.56-5.23,8.92-.88Q55.36,61.75,68.56,75c1,1,2.81,1.87,2.09,3.6s-2.37,2.53-4.46,2.5C59.55,81,52.9,81,46.26,81.05Z"/>
  <path d="M123.42,81c-6.5,0-13,0-19.5,0-2,0-3.75-.5-4.55-2.36s1-2.63,2-3.62c9.28-9.35,18.64-18.61,27.88-28,1.86-1.89,3.25-2.5,5.24-.21,7.62,8.81,11.08,19.46,13.28,30.54.54,2.74-2.24,3.64-4.86,3.63C136.42,81,129.92,81,123.42,81Z"/>
  <path d="M89,46.72c0-6.32.18-12.65-.07-19-.17-4.25,1.89-5.42,5.48-4.68a72.43,72.43,0,0,1,28.79,12.6c1.8,1.33,1.88,2.5.37,4.48-3.91,5.14-9.26,8.76-13.51,13.5-4.82,5.36-9.93,10.41-15.23,15.29-1.25,1.15-2,2.64-4,1.93S89,68.32,89,66.68Q89,56.71,89,46.72Z"/>
  <path d="M81,123.73c0,6.16-.12,12.31,0,18.47.1,4-1,5.65-5.48,5-10.39-1.61-19.52-5.87-27.92-12-2.71-2-3-3.67-.32-6.27,9.32-9,18.39-18.31,27.61-27.44,1.06-1,1.87-3.14,4-2,1.83,1,2.1,2.77,2.08,4.72C81,110.75,81,117.24,81,123.73Z"/>
</svg>