<svg xmlns="http://www.w3.org/2000/svg" viewBox="0 0 18.3 14.56"><title>twitter-logo</title><path d="M18.15,1.66A7.65,7.65,0,0,1,16,2.25a3.71,3.71,0,0,0,1.63-2,7.52,7.52,0,0,1-2.34.89A3.69,3.69,0,0,0,8.93,3.62,3.8,3.8,0,0,0,9,4.46,10.46,10.46,0,0,1,1.4.6,3.84,3.84,0,0,0,.9,2.47,3.71,3.71,0,0,0,2.54,5.54,3.79,3.79,0,0,1,.87,5.08v0a3.72,3.72,0,0,0,3,3.63,3.79,3.79,0,0,1-1,.12,3.26,3.26,0,0,1-.7-.06,3.74,3.74,0,0,0,3.45,2.57A7.44,7.44,0,0,1,1,13a6.4,6.4,0,0,1-.88,0,10.43,10.43,0,0,0,5.66,1.66A10.44,10.44,0,0,0,16.32,4.06c0-.17,0-.33,0-.48A7.35,7.35,0,0,0,18.15,1.66Z" fill="#fff"/><path d="M-5.85-11.07a3,3,0,0,0-3,3v30a3,3,0,0,0,3,3h30a3,3,0,0,0,3-3v-30a3,3,0,0,0-3-3Zm0-1h30a4,4,0,0,1,4,4v30a4,4,0,0,1-4,4h-30a4,4,0,0,1-4-4v-30A4,4,0,0,1-5.85-12.07Z" fill="#717171"/></svg>