<svg xmlns="http://www.w3.org/2000/svg" viewBox="0 0 17.98 10.5"><title>vk-logo</title><path d="M-6-12.73a3,3,0,0,0-3,3v30a3,3,0,0,0,3,3H24a3,3,0,0,0,3-3v-30a3,3,0,0,0-3-3Zm0-1H24a4,4,0,0,1,4,4v30a4,4,0,0,1-4,4H-6a4,4,0,0,1-4-4v-30A4,4,0,0,1-6-13.73Z" fill="#717171"/><path d="M17.88,9.56l-.06-.12A9.38,9.38,0,0,0,16,7.37v0h0c-.4-.38-.65-.63-.76-.76a.72.72,0,0,1-.13-.76,6.48,6.48,0,0,1,.84-1.23l.61-.79C17.63,2.35,18.1,1.43,18,1L17.9.94a.51.51,0,0,0-.29-.15,1.44,1.44,0,0,0-.6,0l-2.7,0a.38.38,0,0,0-.18,0L14,.81l0,0,0,0a.27.27,0,0,0-.1.09.69.69,0,0,0-.1.17,14.53,14.53,0,0,1-1,2.1c-.23.39-.44.73-.64,1a5.53,5.53,0,0,1-.48.63,3.2,3.2,0,0,1-.36.32c-.1.08-.18.12-.24.1l-.16,0A.66.66,0,0,1,10.63,5a1.16,1.16,0,0,1-.11-.37,2.87,2.87,0,0,1,0-.38V3.83c0-.19,0-.32,0-.39,0-.24,0-.5,0-.77s0-.5,0-.66,0-.34,0-.52a2.26,2.26,0,0,0,0-.42,1.32,1.32,0,0,0-.1-.3.54.54,0,0,0-.19-.23A1.19,1.19,0,0,0,9.91.42,6,6,0,0,0,8.65.29,6.23,6.23,0,0,0,6.41.52,1.17,1.17,0,0,0,6.06.8C5.94.94,5.93,1,6,1a1.17,1.17,0,0,1,.8.41l.05.11A1.38,1.38,0,0,1,7,2a4.48,4.48,0,0,1,.09.68,7.56,7.56,0,0,1,0,1.17c0,.33-.06.58-.09.76A1.44,1.44,0,0,1,6.86,5a1.65,1.65,0,0,1-.11.21l0,0a.7.7,0,0,1-.25.05.58.58,0,0,1-.32-.13,3.06,3.06,0,0,1-.39-.36,5.55,5.55,0,0,1-.45-.64c-.17-.28-.34-.6-.53-1l-.15-.27c-.09-.17-.22-.43-.38-.76s-.3-.66-.43-1a.62.62,0,0,0-.22-.3l-.05,0L3.38.8,3.16.74.6.76A.64.64,0,0,0,.07.94L0,1a.28.28,0,0,0,0,.15.74.74,0,0,0,.06.25c.37.88.78,1.73,1.22,2.54s.82,1.48,1.14,2,.66,1,1,1.41.56.73.67.85l.25.29.24.22a5.65,5.65,0,0,0,.66.54c.29.21.61.41,1,.62a5.35,5.35,0,0,0,1.23.49,4.38,4.38,0,0,0,1.37.16H9.88a.74.74,0,0,0,.49-.21l0,0a.57.57,0,0,0,.07-.17,1,1,0,0,0,0-.26,4,4,0,0,1,.06-.72,2,2,0,0,1,.16-.49,1.18,1.18,0,0,1,.2-.27l.16-.14.08,0a.62.62,0,0,1,.53.14,3.26,3.26,0,0,1,.57.55c.18.21.39.45.64.72a4.65,4.65,0,0,0,.65.6l.19.11a2.06,2.06,0,0,0,.49.21,1,1,0,0,0,.52,0l2.4,0a1,1,0,0,0,.55-.12.43.43,0,0,0,.23-.26.68.68,0,0,0,0-.32A.69.69,0,0,0,17.88,9.56Z" fill="#fff"/></svg>