<svg xmlns="http://www.w3.org/2000/svg" viewBox="0 0 20.16 20.16"><title>heart</title><path d="M-1.93-2.14h24v24h-24Z" fill="none"/><path d="M14.57.86A6,6,0,0,0,10.07,3,6,6,0,0,0,5.57.86a5.45,5.45,0,0,0-5.5,5.5c0,3.78,3.4,6.86,8.55,11.54l1.45,1.31,1.45-1.32c5.15-4.67,8.55-7.75,8.55-11.53A5.45,5.45,0,0,0,14.57.86Zm-4.4,15.55-.1.1-.1-.1c-4.76-4.31-7.9-7.16-7.9-10a3.42,3.42,0,0,1,3.5-3.5A3.91,3.91,0,0,1,9.14,5.22H11a3.88,3.88,0,0,1,3.56-2.36,3.42,3.42,0,0,1,3.5,3.5C18.07,9.25,14.93,12.1,10.17,16.41Z"/></svg>